<?xml version="1.0" encoding="UTF-8" standalone="no"?>
<!DOCTYPE svg PUBLIC "-//W3C//DTD SVG 20010904//EN"
              "http://www.w3.org/TR/2001/REC-SVG-20010904/DTD/svg10.dtd">

<svg xmlns="http://www.w3.org/2000/svg"
     width="6.4in" height="3.6in"
     viewBox="0 0 1920 1080">
  <path id="Unnamed #1"
        fill="none" stroke="black" stroke-width="1"
        d="M 1281.45,229.27
           C 1281.45,229.27 1286.91,238.36 1286.91,238.36
             1286.91,238.36 1288.55,245.27 1288.55,245.27
             1288.55,245.27 1288.50,258.00 1288.50,258.00
             1288.50,258.00 1282.50,727.50 1282.50,727.50
             1282.50,727.50 1282.36,744.91 1282.36,744.91
             1282.36,744.91 1279.27,756.91 1279.27,756.91
             1279.27,756.91 1272.00,766.50 1272.00,766.50
             1272.00,766.50 1262.55,769.09 1262.55,769.09
             1262.55,769.09 1250.73,770.00 1250.73,770.00
             1250.73,770.00 1239.00,765.00 1239.00,765.00
             1239.00,765.00 858.00,496.50 858.00,496.50
             858.00,496.50 850.73,489.45 850.73,489.45
             850.73,489.45 844.73,479.64 844.73,479.64
             844.73,479.64 844.50,468.00 844.50,468.00
             844.50,468.00 847.27,458.18 847.27,458.18
             847.27,458.18 855.64,448.55 855.64,448.55
             855.64,448.55 868.50,441.00 868.50,441.00
             868.50,441.00 1237.50,231.00 1237.50,231.00
             1237.50,231.00 1246.73,225.45 1246.73,225.45
             1246.73,225.45 1257.09,221.45 1257.09,221.45
             1257.09,221.45 1272.00,223.50 1272.00,223.50
             1272.00,223.50 1281.45,229.27 1281.45,229.27 Z
           M 1236.67,290.67
           C 1236.67,290.67 1232.00,701.33 1232.00,701.33
             1232.00,701.33 914.75,476.12 914.75,476.12
             914.75,476.12 1236.67,290.67 1236.67,290.67 Z" />
</svg>
