<?xml version="1.0" encoding="UTF-8" standalone="no"?>
<!DOCTYPE svg PUBLIC "-//W3C//DTD SVG 20010904//EN"
              "http://www.w3.org/TR/2001/REC-SVG-20010904/DTD/svg10.dtd">

<svg xmlns="http://www.w3.org/2000/svg"
     width="6.4in" height="3.6in"
     viewBox="0 0 1920 1080">
  <path id="Unnamed #1"
        fill="none" stroke="black" stroke-width="1"
        d="M 638.55,229.27
           C 638.55,229.27 633.09,238.36 633.09,238.36
             633.09,238.36 631.45,245.27 631.45,245.27
             631.45,245.27 631.50,258.00 631.50,258.00
             631.50,258.00 637.50,727.50 637.50,727.50
             637.50,727.50 637.64,744.91 637.64,744.91
             637.64,744.91 640.73,756.91 640.73,756.91
             640.73,756.91 648.00,766.50 648.00,766.50
             648.00,766.50 657.45,769.09 657.45,769.09
             657.45,769.09 669.27,770.00 669.27,770.00
             669.27,770.00 681.00,765.00 681.00,765.00
             681.00,765.00 1062.00,496.50 1062.00,496.50
             1062.00,496.50 1069.27,489.45 1069.27,489.45
             1069.27,489.45 1075.27,479.64 1075.27,479.64
             1075.27,479.64 1075.50,468.00 1075.50,468.00
             1075.50,468.00 1072.73,458.18 1072.73,458.18
             1072.73,458.18 1064.36,448.55 1064.36,448.55
             1064.36,448.55 1051.50,441.00 1051.50,441.00
             1051.50,441.00 682.50,231.00 682.50,231.00
             682.50,231.00 673.27,225.45 673.27,225.45
             673.27,225.45 662.91,221.45 662.91,221.45
             662.91,221.45 648.00,223.50 648.00,223.50
             648.00,223.50 638.55,229.27 638.55,229.27 Z
           M 683.33,290.67
           C 683.33,290.67 688.00,701.33 688.00,701.33
             688.00,701.33 1005.25,476.12 1005.25,476.12
             1005.25,476.12 683.33,290.67 683.33,290.67 Z" />
</svg>
